# xmcd CD database file
#
# Track frame offsets:
#	150
#	19319
#	36483
#	43633
#	75972
#	95090
#	112288
#
# Disc length: 1592 seconds
#
# Revision: 2
# Processed by: cddbd v1.5.2PL0 Copyright (c) Steve Scherf et al.
# Submitted via: CDex 1.70beta3
#
DISCID=59063607
DTITLE=EGOIST - Departures ～あなたにおくるアイの歌～
DYEAR=2011
DGENRE=Anime
TTITLE0=Departures ～あなたにおくるアイの歌～
TTITLE1=エウテルペ
TTITLE2=Departures ～あなたにおくるアイの歌～ (TV Edit)
TTITLE3=Departures ～あなたにおくるアイの歌～ BOOM BOOM SATELLITES Remix -meteoric rain-
TTITLE4=Departures ～あなたにおくるアイの歌～ -Instrumental-
TTITLE5=エウテルペ -Instrumental-
TTITLE6=Departures ～あなたにおくるアイの歌～ (TV Edit) -Instrumental-
EXTD=YEAR: 2011
EXTT0=
EXTT1=
EXTT2=
EXTT3=
EXTT4=
EXTT5=
EXTT6=
PLAYORDER=
